<?xml version="1.0" encoding="utf-8"?>
<!-- Generator: Adobe Illustrator 25.4.8, SVG Export Plug-In . SVG Version: 6.00 Build 0)  -->
<svg version="1.1" id="Layer_1" xmlns="http://www.w3.org/2000/svg" xmlns:xlink="http://www.w3.org/1999/xlink" x="0px" y="0px"
	 viewBox="0 0 1447 1271" style="enable-background:new 0 0 1447 1271;" xml:space="preserve">
<style type="text/css">
	.st0{fill-rule:evenodd;clip-rule:evenodd;fill:#A5A5A5;}
	.st1{fill-rule:evenodd;clip-rule:evenodd;fill:#9B9B9B;}
</style>
<path class="st0" d="M1334.4,372.9c167.2,267.5,85.8,620-181.7,787.1c-211.4,132.1-475.7,109-659.9-38.4l27.4-17.1
	c173.9,133.7,419.4,152.9,616.4,29.8c253.3-158.3,330.3-492,172.1-745.3C1200.1,215.2,1027.1,122.7,836,133.9
	c-52.2,3.1-96.5,18.2-96.5,18.2s-2.3-15.9-5.6-25.6C967.9,63.3,1188.9,140,1334.4,372.9z M292.1,798.8l27.4-17.1
	c-25.4-127-7.4-249.5,55.1-361.3c0,0-15.4-16.8-24.4-21.5C283.4,519.6,261.9,662.2,292.1,798.8L292.1,798.8z"/>
<path class="st1" d="M909.6,261.8c-62-9.8-122.9-5.5-179.5,10.5l0,0c-15.5,59.7-53,113.9-109.4,149.1c-42.2,26.4-89.3,38.6-135.6,38
	c-27.1,44.9-46.1,95.7-54.8,150.7C394,838.6,550,1053.2,778.5,1089.4c228.6,36.2,443.2-119.7,479.4-348.3
	C1294.1,512.6,1138.2,298,909.6,261.8z M1140.5,728.4c-25.9,163.7-179.6,275.3-343.3,249.4c-163.7-25.9-275.3-179.6-249.4-343.3
	c25.9-163.7,179.6-275.3,343.3-249.4C1054.8,411.1,1166.4,564.7,1140.5,728.4z"/>
<g>
	<path class="st1" d="M510.9,917.7l-113.6,71l-37.6-60.2l113.6-71L510.9,917.7z"/>
	<path class="st1" d="M211.8,980l124.1-80.6l-13.3,8.6c34.3-22.3,80.1-12.5,102.4,21.8c22.3,34.3,12.5,80.1-21.8,102.4l48.1-31.2
		l-124.1,80.6l-191.6,124.4c-34.3,22.3-80.1,12.5-102.4-21.8c-22.3-34.3-12.5-80.1,21.8-102.4L211.8,980L211.8,980z"/>
</g>
<path class="st1" d="M979.1,97.2"/>
<path class="st1" d="M628.2,210.1c0-77.4-62.7-140.1-140.1-140.1S348,132.7,348,210.1s62.7,140.1,140.1,140.1
	S628.2,287.5,628.2,210.1L628.2,210.1z"/>
<g>
	<path class="st1" d="M791.8,718.1C779.3,727,773,738.3,773,752c0,13.4,5,25.1,15,34.9c10,9.8,22.8,14.7,38.3,14.7
		c17.3,0,33.8-5.7,49.6-17.1c11.6-8.7,19.3-19.3,22.9-31.8c2.5-8.2,3.8-23.8,3.8-46.8v-19.1c-12.3,4.1-31.8,9-58.4,14.7
		C817.4,707.1,800,712.7,791.8,718.1z"/>
	<path class="st1" d="M884.8,424.6c-141.8-22.5-275,74.3-297.5,216.1c-22.5,141.8,74.3,275,216.1,297.5s275-74.3,297.5-216.1
		C1123.4,580.3,1026.7,447.1,884.8,424.6z M922.7,861c-2.5-6.4-5.6-15.8-9.2-28.4c-1.6-5.7-2.7-9.5-3.4-11.3
		c-16.4,16-34,27.9-52.6,35.9c-18.7,8-38.6,12-59.8,12c-37.4,0-66.8-10.1-88.4-30.4c-21.5-20.3-32.3-45.9-32.3-76.9
		c0-20.5,4.9-38.8,14.7-54.9c9.8-16.1,23.5-28.4,41.2-36.9c17.7-8.5,43.1-16,76.4-22.4c44.9-8.4,76-16.3,93.3-23.6v-9.6
		c0-18.5-4.6-31.6-13.7-39.5c-9.1-7.9-26.3-11.8-51.6-11.8c-17.1,0-30.4,3.4-40,10.1c-9.6,6.7-17.3,18.5-23.2,35.4L686.9,593
		c9.8-35.1,26.7-61.1,50.6-77.9c23.9-16.9,59.5-25.3,106.6-25.3c42.8,0,74.7,5.1,95.7,15.2c21,10.1,35.7,23,44.3,38.6
		c8.5,15.6,12.8,44.3,12.8,86l-1,112.1c0,31.9,1.5,55.4,4.6,70.6c3.1,15.2,8.8,31.4,17.3,48.7H922.7z"/>
</g>
</svg>
